<?xml version="1.0"?>
<svg xmlns:rdf="http://www.w3.org/1999/02/22-rdf-syntax-ns#" xmlns="http://www.w3.org/2000/svg" xmlns:cc="http://web.resource.org/cc/" xmlns:xlink="http://www.w3.org/1999/xlink" xmlns:dc="http://purl.org/dc/elements/1.1/" xmlns:svg="http://www.w3.org/2000/svg" id="svg2" viewBox="0 0 446.78 297.86" version="1.0">
  <defs id="defs4">
    <linearGradient id="linearGradient10008" y2="201.94" gradientUnits="userSpaceOnUse" x2="303.35" gradientTransform="translate(-30.601 44.201)" y1="206.88" x1="308.29">
      <stop id="stop10004" offset="0"/>
      <stop id="stop10006" stop-opacity="0" offset="1"/>
    </linearGradient>
  </defs>
  <g id="layer1" stroke="#000" transform="translate(-121.19 -120.39)">
    <path id="path3199" d="m211.4 348.56c-34-49-36-58-36-58l2-15s42-51 102-95c48.34-35.45 90.19-52.07 123.98-56.15 8.15-0.98 15.83-1.24 23.02-0.85 37 2 84 14 111 39s29 49 27 67-27 52-27 52-218 109-226 109-29-7-29-7-21-6-35-10-35-23-36-25z" stroke-width="6" fill="none"/>
    <path id="path4172" d="m175.4 288.56c27 32 37 49 44 55s34 10 52 18 27 12 34 12 39-21 66-41 68-49 91-59 30-15 46-15 27 10 27 10l20-16.62 5.05-9.07" stroke-width="4" fill="none"/>
    <path id="path4174" d="m427.4 291.56c0-13-3-19-9-25s-76.02-54.35-75.02-55.35 4.02-8.65 6.02-13.65 0-6-6-6-19 8-19 8-15-9-25-13l-15-6-5-1" stroke-width="4" fill="none"/>
    <path id="path4176" d="m258.24 256.33c-13.52 15.89-32.84 44.23-32.84 50.23s1 7 8 7 33-19 55-37 52.73-59.1 54.73-65.1 7.27-16.9 4.27-19.9-22.78 5.91-40 19c-22.28 16.94-34.35 29.63-49.16 45.77z" stroke-width="4" fill="none"/>
    <path id="path4180" d="m228.4 309.56c-4 5-8 13-8 13v20" stroke-width="4" fill="none"/>
    <path id="path8058" d="m179.4 275.56s7 7 15 17 27 32 27 32 14 5 32 12 44 21 49 22 9-2 17-7 98-71 123-84 40-22 50-24 13-2 13-2" stroke-width="1px" fill="none"/>
    <path id="path9031" d="m257.73 275.9s5.84 2.44 11.06 0 16.28-11.58 23.04-18.9c6.75-7.32 11.36-13.12 12.28-14.94 0.92-1.83 0.92-7.63-1.53-8.85-2.46-1.22-10.75-0.3-15.05 1.53s-12.29 8.84-19.35 16.46c-7.07 7.63-12.6 11.29-12.6 15.86s0.93 8.54 2.15 8.84z" stroke-width="6" fill="url(#linearGradient10008)" fill-rule="evenodd"/>
    <path id="path10012" d="m136.79 413.46s19.84-9.92 45.68-27.95c25.85-18.03 41.78-29.75 41.78-29.75s1.2 0.6 1.5-2.71c0.3-3.3 3.31-3.3-2.7-5.71-6.01-2.4-10.52 3.31-18.94 8.72-8.41 5.41-21.33 15.93-36.36 25.54-15.03 9.62-29.15 18.94-34.56 21.94-5.41 3.01-7.82 5.11-9.62 7.22-1.8 2.1-2.7 3.3-0.9 5.4 1.8 2.11 3.61 1.51 6.01 1.51s8.72-3.91 8.11-4.21z" stroke-width="1px" fill-rule="evenodd"/>
  </g>
  <metadata>
    <rdf:RDF>
      <cc:Work>
        <dc:format>image/svg+xml</dc:format>
        <dc:type rdf:resource="http://purl.org/dc/dcmitype/StillImage"/>
        <cc:license rdf:resource="http://creativecommons.org/licenses/publicdomain/"/>
        <dc:publisher>
          <cc:Agent rdf:about="http://openclipart.org/">
            <dc:title>Openclipart</dc:title>
          </cc:Agent>
        </dc:publisher>
        <dc:title>Mouse</dc:title>
        <dc:date>2007-03-07T02:01:35</dc:date>
        <dc:description>It's the typical computer mouse.</dc:description>
        <dc:source>http://openclipart.org/detail/3422/mouse-by-aritztg</dc:source>
        <dc:creator>
          <cc:Agent>
            <dc:title>aritztg</dc:title>
          </cc:Agent>
        </dc:creator>
        <dc:subject>
          <rdf:Bag>
            <rdf:li>clip art</rdf:li>
            <rdf:li>clipart</rdf:li>
            <rdf:li>colouring book</rdf:li>
            <rdf:li>computer</rdf:li>
            <rdf:li>image</rdf:li>
            <rdf:li>media</rdf:li>
            <rdf:li>mouse</rdf:li>
            <rdf:li>public domain</rdf:li>
            <rdf:li>svg</rdf:li>
            <rdf:li>tool</rdf:li>
          </rdf:Bag>
        </dc:subject>
      </cc:Work>
      <cc:License rdf:about="http://creativecommons.org/licenses/publicdomain/">
        <cc:permits rdf:resource="http://creativecommons.org/ns#Reproduction"/>
        <cc:permits rdf:resource="http://creativecommons.org/ns#Distribution"/>
        <cc:permits rdf:resource="http://creativecommons.org/ns#DerivativeWorks"/>
      </cc:License>
    </rdf:RDF>
  </metadata>
</svg>
